<svg id="visual" viewBox="0 0 900 600" width="900" height="600" xmlns="http://www.w3.org/2000/svg" xmlns:xlink="http://www.w3.org/1999/xlink" version="1.1"><rect x="0" y="0" width="900" height="600" fill="#001220"></rect><path d="M0 370L21.5 377C43 384 86 398 128.8 396C171.7 394 214.3 376 257.2 371.7C300 367.3 343 376.7 385.8 384.7C428.7 392.7 471.3 399.3 514.2 405.8C557 412.3 600 418.7 642.8 419C685.7 419.3 728.3 413.7 771.2 406.8C814 400 857 392 878.5 388L900 384L900 601L878.5 601C857 601 814 601 771.2 601C728.3 601 685.7 601 642.8 601C600 601 557 601 514.2 601C471.3 601 428.7 601 385.8 601C343 601 300 601 257.2 601C214.3 601 171.7 601 128.8 601C86 601 43 601 21.5 601L0 601Z" fill="#fa7268"></path><path d="M0 419L21.5 423.7C43 428.3 86 437.7 128.8 444.8C171.7 452 214.3 457 257.2 460.8C300 464.7 343 467.3 385.8 470.3C428.7 473.3 471.3 476.7 514.2 476.2C557 475.7 600 471.3 642.8 464.5C685.7 457.7 728.3 448.3 771.2 443.3C814 438.3 857 437.7 878.5 437.3L900 437L900 601L878.5 601C857 601 814 601 771.2 601C728.3 601 685.7 601 642.8 601C600 601 557 601 514.2 601C471.3 601 428.7 601 385.8 601C343 601 300 601 257.2 601C214.3 601 171.7 601 128.8 601C86 601 43 601 21.5 601L0 601Z" fill="#ef5f67"></path><path d="M0 471L21.5 466.5C43 462 86 453 128.8 455.5C171.7 458 214.3 472 257.2 473.2C300 474.3 343 462.7 385.8 455.7C428.7 448.7 471.3 446.3 514.2 450.2C557 454 600 464 642.8 464.3C685.7 464.7 728.3 455.3 771.2 449.3C814 443.3 857 440.7 878.5 439.3L900 438L900 601L878.5 601C857 601 814 601 771.2 601C728.3 601 685.7 601 642.8 601C600 601 557 601 514.2 601C471.3 601 428.7 601 385.8 601C343 601 300 601 257.2 601C214.3 601 171.7 601 128.8 601C86 601 43 601 21.5 601L0 601Z" fill="#e34c67"></path><path d="M0 527L21.5 520.3C43 513.7 86 500.3 128.8 499C171.7 497.7 214.3 508.3 257.2 514C300 519.7 343 520.3 385.8 523.2C428.7 526 471.3 531 514.2 534.5C557 538 600 540 642.8 535C685.7 530 728.3 518 771.2 515.3C814 512.7 857 519.3 878.5 522.7L900 526L900 601L878.5 601C857 601 814 601 771.2 601C728.3 601 685.7 601 642.8 601C600 601 557 601 514.2 601C471.3 601 428.7 601 385.8 601C343 601 300 601 257.2 601C214.3 601 171.7 601 128.8 601C86 601 43 601 21.5 601L0 601Z" fill="#d53867"></path><path d="M0 530L21.5 530.3C43 530.7 86 531.3 128.8 531.8C171.7 532.3 214.3 532.7 257.2 536.5C300 540.3 343 547.7 385.8 548.2C428.7 548.7 471.3 542.3 514.2 542.3C557 542.3 600 548.7 642.8 553.2C685.7 557.7 728.3 560.3 771.2 558C814 555.7 857 548.3 878.5 544.7L900 541L900 601L878.5 601C857 601 814 601 771.2 601C728.3 601 685.7 601 642.8 601C600 601 557 601 514.2 601C471.3 601 428.7 601 385.8 601C343 601 300 601 257.2 601C214.3 601 171.7 601 128.8 601C86 601 43 601 21.5 601L0 601Z" fill="#c62368"></path></svg>