<svg id="visual" viewBox="0 0 900 600" width="900" height="600" xmlns="http://www.w3.org/2000/svg" xmlns:xlink="http://www.w3.org/1999/xlink" version="1.1"><path d="M0 13L8.3 19C16.7 25 33.3 37 50 45C66.7 53 83.3 57 100 55C116.7 53 133.3 45 150 42C166.7 39 183.3 41 200 44C216.7 47 233.3 51 250 52C266.7 53 283.3 51 300 43C316.7 35 333.3 21 350 15C366.7 9 383.3 11 400 18C416.7 25 433.3 37 450 44C466.7 51 483.3 53 500 52C516.7 51 533.3 47 550 42C566.7 37 583.3 31 600 26C616.7 21 633.3 17 650 16C666.7 15 683.3 17 700 24C716.7 31 733.3 43 750 43C766.7 43 783.3 31 800 29C816.7 27 833.3 35 850 38C866.7 41 883.3 39 891.7 38L900 37L900 0L891.7 0C883.3 0 866.7 0 850 0C833.3 0 816.7 0 800 0C783.3 0 766.7 0 750 0C733.3 0 716.7 0 700 0C683.3 0 666.7 0 650 0C633.3 0 616.7 0 600 0C583.3 0 566.7 0 550 0C533.3 0 516.7 0 500 0C483.3 0 466.7 0 450 0C433.3 0 416.7 0 400 0C383.3 0 366.7 0 350 0C333.3 0 316.7 0 300 0C283.3 0 266.7 0 250 0C233.3 0 216.7 0 200 0C183.3 0 166.7 0 150 0C133.3 0 116.7 0 100 0C83.3 0 66.7 0 50 0C33.3 0 16.7 0 8.3 0L0 0Z" fill="#004cbb"></path><path d="M0 91L8.3 91C16.7 91 33.3 91 50 88C66.7 85 83.3 79 100 78C116.7 77 133.3 81 150 86C166.7 91 183.3 97 200 103C216.7 109 233.3 115 250 117C266.7 119 283.3 117 300 101C316.7 85 333.3 55 350 48C366.7 41 383.3 57 400 67C416.7 77 433.3 81 450 85C466.7 89 483.3 93 500 91C516.7 89 533.3 81 550 81C566.7 81 583.3 89 600 81C616.7 73 633.3 49 650 38C666.7 27 683.3 29 700 46C716.7 63 733.3 95 750 95C766.7 95 783.3 63 800 54C816.7 45 833.3 59 850 65C866.7 71 883.3 69 891.7 68L900 67L900 35L891.7 36C883.3 37 866.7 39 850 36C833.3 33 816.7 25 800 27C783.3 29 766.7 41 750 41C733.3 41 716.7 29 700 22C683.3 15 666.7 13 650 14C633.3 15 616.7 19 600 24C583.3 29 566.7 35 550 40C533.3 45 516.7 49 500 50C483.3 51 466.7 49 450 42C433.3 35 416.7 23 400 16C383.3 9 366.7 7 350 13C333.3 19 316.7 33 300 41C283.3 49 266.7 51 250 50C233.3 49 216.7 45 200 42C183.3 39 166.7 37 150 40C133.3 43 116.7 51 100 53C83.3 55 66.7 51 50 43C33.3 35 16.7 23 8.3 17L0 11Z" fill="#005ce5"></path><path d="M0 247L8.3 238C16.7 229 33.3 211 50 208C66.7 205 83.3 217 100 210C116.7 203 133.3 177 150 173C166.7 169 183.3 187 200 206C216.7 225 233.3 245 250 246C266.7 247 283.3 229 300 216C316.7 203 333.3 195 350 202C366.7 209 383.3 231 400 220C416.7 209 433.3 165 450 151C466.7 137 483.3 153 500 149C516.7 145 533.3 121 550 121C566.7 121 583.3 145 600 145C616.7 145 633.3 121 650 107C666.7 93 683.3 89 700 114C716.7 139 733.3 193 750 193C766.7 193 783.3 139 800 118C816.7 97 833.3 109 850 125C866.7 141 883.3 161 891.7 171L900 181L900 65L891.7 66C883.3 67 866.7 69 850 63C833.3 57 816.7 43 800 52C783.3 61 766.7 93 750 93C733.3 93 716.7 61 700 44C683.3 27 666.7 25 650 36C633.3 47 616.7 71 600 79C583.3 87 566.7 79 550 79C533.3 79 516.7 87 500 89C483.3 91 466.7 87 450 83C433.3 79 416.7 75 400 65C383.3 55 366.7 39 350 46C333.3 53 316.7 83 300 99C283.3 115 266.7 117 250 115C233.3 113 216.7 107 200 101C183.3 95 166.7 89 150 84C133.3 79 116.7 75 100 76C83.3 77 66.7 83 50 86C33.3 89 16.7 89 8.3 89L0 89Z" fill="#2573ff"></path><path d="M0 265L8.3 263C16.7 261 33.3 257 50 256C66.7 255 83.3 257 100 244C116.7 231 133.3 203 150 205C166.7 207 183.3 239 200 257C216.7 275 233.3 279 250 277C266.7 275 283.3 267 300 256C316.7 245 333.3 231 350 242C366.7 253 383.3 289 400 281C416.7 273 433.3 221 450 205C466.7 189 483.3 209 500 207C516.7 205 533.3 181 550 176C566.7 171 583.3 185 600 178C616.7 171 633.3 143 650 131C666.7 119 683.3 123 700 150C716.7 177 733.3 227 750 224C766.7 221 783.3 165 800 148C816.7 131 833.3 153 850 175C866.7 197 883.3 219 891.7 230L900 241L900 179L891.7 169C883.3 159 866.7 139 850 123C833.3 107 816.7 95 800 116C783.3 137 766.7 191 750 191C733.3 191 716.7 137 700 112C683.3 87 666.7 91 650 105C633.3 119 616.7 143 600 143C583.3 143 566.7 119 550 119C533.3 119 516.7 143 500 147C483.3 151 466.7 135 450 149C433.3 163 416.7 207 400 218C383.3 229 366.7 207 350 200C333.3 193 316.7 201 300 214C283.3 227 266.7 245 250 244C233.3 243 216.7 223 200 204C183.3 185 166.7 167 150 171C133.3 175 116.7 201 100 208C83.3 215 66.7 203 50 206C33.3 209 16.7 227 8.3 236L0 245Z" fill="#5892ff"></path><path d="M0 307L8.3 307C16.7 307 33.3 307 50 301C66.7 295 83.3 283 100 270C116.7 257 133.3 243 150 248C166.7 253 183.3 277 200 293C216.7 309 233.3 317 250 317C266.7 317 283.3 309 300 299C316.7 289 333.3 277 350 282C366.7 287 383.3 309 400 294C416.7 279 433.3 227 450 211C466.7 195 483.3 215 500 220C516.7 225 533.3 215 550 211C566.7 207 583.3 209 600 195C616.7 181 633.3 151 650 146C666.7 141 683.3 161 700 194C716.7 227 733.3 273 750 269C766.7 265 783.3 211 800 189C816.7 167 833.3 177 850 200C866.7 223 883.3 259 891.7 277L900 295L900 239L891.7 228C883.3 217 866.7 195 850 173C833.3 151 816.7 129 800 146C783.3 163 766.7 219 750 222C733.3 225 716.7 175 700 148C683.3 121 666.7 117 650 129C633.3 141 616.7 169 600 176C583.3 183 566.7 169 550 174C533.3 179 516.7 203 500 205C483.3 207 466.7 187 450 203C433.3 219 416.7 271 400 279C383.3 287 366.7 251 350 240C333.3 229 316.7 243 300 254C283.3 265 266.7 273 250 275C233.3 277 216.7 273 200 255C183.3 237 166.7 205 150 203C133.3 201 116.7 229 100 242C83.3 255 66.7 253 50 254C33.3 255 16.7 259 8.3 261L0 263Z" fill="#6198ff"></path><path d="M0 385L8.3 383C16.7 381 33.3 377 50 374C66.7 371 83.3 369 100 378C116.7 387 133.3 407 150 415C166.7 423 183.3 419 200 412C216.7 405 233.3 395 250 398C266.7 401 283.3 417 300 421C316.7 425 333.3 417 350 425C366.7 433 383.3 457 400 455C416.7 453 433.3 425 450 425C466.7 425 483.3 453 500 446C516.7 439 533.3 397 550 392C566.7 387 583.3 419 600 421C616.7 423 633.3 395 650 385C666.7 375 683.3 383 700 392C716.7 401 733.3 411 750 399C766.7 387 783.3 353 800 351C816.7 349 833.3 379 850 392C866.7 405 883.3 401 891.7 399L900 397L900 293L891.7 275C883.3 257 866.7 221 850 198C833.3 175 816.7 165 800 187C783.3 209 766.7 263 750 267C733.3 271 716.7 225 700 192C683.3 159 666.7 139 650 144C633.3 149 616.7 179 600 193C583.3 207 566.7 205 550 209C533.3 213 516.7 223 500 218C483.3 213 466.7 193 450 209C433.3 225 416.7 277 400 292C383.3 307 366.7 285 350 280C333.3 275 316.7 287 300 297C283.3 307 266.7 315 250 315C233.3 315 216.7 307 200 291C183.3 275 166.7 251 150 246C133.3 241 116.7 255 100 268C83.3 281 66.7 293 50 299C33.3 305 16.7 305 8.3 305L0 305Z" fill="#5892ff"></path><path d="M0 493L8.3 488C16.7 483 33.3 473 50 477C66.7 481 83.3 499 100 505C116.7 511 133.3 505 150 501C166.7 497 183.3 495 200 490C216.7 485 233.3 477 250 480C266.7 483 283.3 497 300 497C316.7 497 333.3 483 350 487C366.7 491 383.3 513 400 507C416.7 501 433.3 467 450 467C466.7 467 483.3 501 500 505C516.7 509 533.3 483 550 474C566.7 465 583.3 473 600 472C616.7 471 633.3 461 650 462C666.7 463 683.3 475 700 482C716.7 489 733.3 491 750 484C766.7 477 783.3 461 800 452C816.7 443 833.3 441 850 446C866.7 451 883.3 463 891.7 469L900 475L900 395L891.7 397C883.3 399 866.7 403 850 390C833.3 377 816.7 347 800 349C783.3 351 766.7 385 750 397C733.3 409 716.7 399 700 390C683.3 381 666.7 373 650 383C633.3 393 616.7 421 600 419C583.3 417 566.7 385 550 390C533.3 395 516.7 437 500 444C483.3 451 466.7 423 450 423C433.3 423 416.7 451 400 453C383.3 455 366.7 431 350 423C333.3 415 316.7 423 300 419C283.3 415 266.7 399 250 396C233.3 393 216.7 403 200 410C183.3 417 166.7 421 150 413C133.3 405 116.7 385 100 376C83.3 367 66.7 369 50 372C33.3 375 16.7 379 8.3 381L0 383Z" fill="#2573ff"></path><path d="M0 535L8.3 535C16.7 535 33.3 535 50 539C66.7 543 83.3 551 100 553C116.7 555 133.3 551 150 553C166.7 555 183.3 563 200 562C216.7 561 233.3 551 250 550C266.7 549 283.3 557 300 559C316.7 561 333.3 557 350 554C366.7 551 383.3 549 400 540C416.7 531 433.3 515 450 516C466.7 517 483.3 535 500 539C516.7 543 533.3 533 550 526C566.7 519 583.3 515 600 510C616.7 505 633.3 499 650 510C666.7 521 683.3 549 700 553C716.7 557 733.3 537 750 521C766.7 505 783.3 493 800 494C816.7 495 833.3 509 850 516C866.7 523 883.3 523 891.7 523L900 523L900 473L891.7 467C883.3 461 866.7 449 850 444C833.3 439 816.7 441 800 450C783.3 459 766.7 475 750 482C733.3 489 716.7 487 700 480C683.3 473 666.7 461 650 460C633.3 459 616.7 469 600 470C583.3 471 566.7 463 550 472C533.3 481 516.7 507 500 503C483.3 499 466.7 465 450 465C433.3 465 416.7 499 400 505C383.3 511 366.7 489 350 485C333.3 481 316.7 495 300 495C283.3 495 266.7 481 250 478C233.3 475 216.7 483 200 488C183.3 493 166.7 495 150 499C133.3 503 116.7 509 100 503C83.3 497 66.7 479 50 475C33.3 471 16.7 481 8.3 486L0 491Z" fill="#005ce5"></path><path d="M0 601L8.3 601C16.7 601 33.3 601 50 601C66.7 601 83.3 601 100 601C116.7 601 133.3 601 150 601C166.7 601 183.3 601 200 601C216.7 601 233.3 601 250 601C266.7 601 283.3 601 300 601C316.7 601 333.3 601 350 601C366.7 601 383.3 601 400 601C416.7 601 433.3 601 450 601C466.7 601 483.3 601 500 601C516.7 601 533.3 601 550 601C566.7 601 583.3 601 600 601C616.7 601 633.3 601 650 601C666.7 601 683.3 601 700 601C716.7 601 733.3 601 750 601C766.7 601 783.3 601 800 601C816.7 601 833.3 601 850 601C866.7 601 883.3 601 891.7 601L900 601L900 521L891.7 521C883.3 521 866.7 521 850 514C833.3 507 816.7 493 800 492C783.3 491 766.7 503 750 519C733.3 535 716.7 555 700 551C683.3 547 666.7 519 650 508C633.3 497 616.7 503 600 508C583.3 513 566.7 517 550 524C533.3 531 516.7 541 500 537C483.3 533 466.7 515 450 514C433.3 513 416.7 529 400 538C383.3 547 366.7 549 350 552C333.3 555 316.7 559 300 557C283.3 555 266.7 547 250 548C233.3 549 216.7 559 200 560C183.3 561 166.7 553 150 551C133.3 549 116.7 553 100 551C83.3 549 66.7 541 50 537C33.3 533 16.7 533 8.3 533L0 533Z" fill="#004cbb"></path></svg>